<svg version="1.1" xmlns="http://www.w3.org/2000/svg" xmlns:xlink="http://www.w3.org/1999/xlink" width="48" height="48"><defs><linearGradient x1="10.04322" y1="10.9389" x2="74.93422" y2="72.5616" gradientUnits="userSpaceOnUse" id="color-1"><stop offset="0" stop-color="#000000" stop-opacity="0.3"></stop><stop offset="1" stop-color="#000000" stop-opacity="0"></stop></linearGradient><filter id="dropshadow-base"><feColorMatrix type="matrix" values="0 0 0 0 0  0 0 0 0 0  0 0 0 0 0  0 0 0 .8 0"></feColorMatrix> <feOffset dx="0" dy="1"></feOffset> <feGaussianBlur stdDeviation="1"></feGaussianBlur> <feComposite in="SourceGraphic"></feComposite></filter><filter id="dropshadow-banner" x="-10%" y="-10%" width="120%" height="130%"><feColorMatrix type="matrix" values="0 0 0 0 0  0 0 0 0 0  0 0 0 0 0  0 0 0 .4 0"></feColorMatrix> <feOffset dx="0" dy="1"></feOffset> <feGaussianBlur stdDeviation="0.5"></feGaussianBlur> <feComposite in="SourceGraphic"></feComposite></filter></defs><g fill="none" fill-rule="nonzero" stroke="none" stroke-width="none" stroke-linecap="butt" stroke-linejoin="miter" stroke-miterlimit="10" stroke-dasharray="" stroke-dashoffset="0" font-family="none" font-weight="none" font-size="none" text-anchor="none" style="mix-blend-mode: normal"><path d="M2,24c0,-12.15026 9.84974,-22 22,-22c12.15026,0 22,9.84974 22,22c0,12.15026 -9.84974,22 -22,22c-12.15026,0 -22,-9.84974 -22,-22z" id="base 1 5" fill="#512da8" stroke-width="1"></path><path d="M10.47048,24.84015l0,0c-0.26385,-0.26385 -0.42727,-0.62813 -0.42727,-1.02986v-11.41426c0,-0.80346 0.65366,-1.45713 1.45713,-1.45713h11.41434c0.40173,0 0.76601,0.16342 1.02986,0.42727l12.56945,12.56945l3.95067,2.43493c0.09787,0.06031 0.18707,0.13094 0.26648,0.21036l4.20303,4.20303c-2.18554,6.74909 -7.54416,12.06997 -14.31655,14.20336z" fill="url(#color-1)" stroke-width="1"></path><path d="M22.91468,25.26742h-11.41434c-0.80346,0 -1.45712,-0.65366 -1.45712,-1.45712v-11.41427c0,-0.80346 0.65366,-1.45712 1.45712,-1.45712h11.41434c0.80346,0 1.45712,0.65366 1.45712,1.45712v11.41427c0,0.80353 -0.65366,1.45712 -1.45712,1.45712zM14.7272,22.08565c0,-0.8283 -0.67384,-1.50214 -1.50207,-1.50214c-0.8283,0 -1.50214,0.67384 -1.50214,1.50214c0,0.82823 0.67384,1.50207 1.50214,1.50207c0.82823,0 1.50207,-0.67384 1.50207,-1.50207zM14.7272,14.12075c0,-0.82823 -0.67384,-1.50207 -1.50207,-1.50207c-0.8283,0 -1.50214,0.67384 -1.50214,1.50207c0,0.8283 0.67384,1.50214 1.50214,1.50214c0.82823,0 1.50207,-0.67384 1.50207,-1.50214zM18.80946,17.99042c0,-0.82823 -0.67384,-1.50207 -1.50214,-1.50207c-0.82823,0 -1.50207,0.67392 -1.50207,1.50214c0,0.82823 0.67384,1.50207 1.50207,1.50207c0.8283,0 1.50214,-0.67392 1.50214,-1.50214zM22.69196,22.08565c0,-0.8283 -0.67384,-1.50214 -1.50207,-1.50214c-0.82823,0 -1.50207,0.67384 -1.50207,1.50214c0,0.82823 0.67384,1.50207 1.50207,1.50207c0.82823,0 1.50207,-0.67384 1.50207,-1.50207zM22.69196,14.12075c0,-0.82823 -0.67384,-1.50207 -1.50207,-1.50207c-0.82823,0 -1.50207,0.67384 -1.50207,1.50207c0,0.8283 0.67384,1.50214 1.50207,1.50214c0.82823,0 1.50207,-0.67384 1.50207,-1.50214zM40.94062,28.3756l-5.98883,9.71687c-0.26694,0.43313 -0.73177,0.69169 -1.24343,0.69169c-0.26913,0 -0.5325,-0.07453 -0.76149,-0.21573l-9.71694,-5.98883c-0.6839,-0.42162 -0.89744,-1.32102 -0.47597,-2.005l5.98883,-9.71694c0.26702,-0.43313 0.73184,-0.69169 1.24343,-0.69169c0.26913,0 0.5325,0.07453 0.76156,0.21573l9.71687,5.98883c0.33033,0.20356 0.56187,0.52471 0.65191,0.90422c0.09012,0.37951 0.02761,0.77045 -0.17595,1.10085zM29.7584,25.27412c0.23722,0.14615 0.50934,0.22345 0.78699,0.22345c0.52573,0 1.00425,-0.26694 1.27986,-0.71421c0.43459,-0.7051 0.21449,-1.63226 -0.49061,-2.06685c-0.23722,-0.14615 -0.50934,-0.22345 -0.78699,-0.22345c-0.52573,0 -1.00425,0.26694 -1.27979,0.71413c-0.21063,0.34155 -0.27547,0.74473 -0.18287,1.1351c0.09275,0.39036 0.33186,0.72127 0.67341,0.93183zM31.20328,30.71019c0.23729,0.14615 0.50941,0.22345 0.78706,0.22345c0.52573,0 1.00417,-0.26694 1.27979,-0.71413c0.21048,-0.34148 0.2754,-0.74466 0.18272,-1.13502c-0.0926,-0.39036 -0.33179,-0.72127 -0.67333,-0.93183c-0.23729,-0.14615 -0.50941,-0.22345 -0.78706,-0.22345c-0.52573,0 -1.00417,0.26694 -1.27986,0.71413c-0.21048,0.34148 -0.2754,0.74466 -0.18272,1.13502c0.09275,0.39043 0.33186,0.72135 0.67341,0.93183zM33.93611,33.67601c-0.23722,-0.14615 -0.50934,-0.22345 -0.78699,-0.22345c-0.52573,0 -1.00425,0.26694 -1.27986,0.71413c-0.21048,0.34155 -0.2754,0.74466 -0.18272,1.1351c0.09267,0.39036 0.33186,0.72127 0.67341,0.93183c0.23722,0.14615 0.50934,0.22345 0.78699,0.22345c0.52573,0 1.00425,-0.26694 1.27986,-0.71421c0.43451,-0.7051 0.21442,-1.63234 -0.49068,-2.06685z" fill="none" stroke-width="0"></path><path d="M22.91468,25.26742h-11.41434c-0.80346,0 -1.45712,-0.65366 -1.45712,-1.45712v-11.41427c0,-0.80346 0.65366,-1.45712 1.45712,-1.45712h11.41434c0.80346,0 1.45712,0.65366 1.45712,1.45712v11.41427c0,0.80353 -0.65366,1.45712 -1.45712,1.45712zM14.7272,22.08565c0,-0.8283 -0.67384,-1.50214 -1.50207,-1.50214c-0.8283,0 -1.50214,0.67384 -1.50214,1.50214c0,0.82823 0.67384,1.50207 1.50214,1.50207c0.82823,0 1.50207,-0.67384 1.50207,-1.50207zM14.7272,14.12075c0,-0.82823 -0.67384,-1.50207 -1.50207,-1.50207c-0.8283,0 -1.50214,0.67384 -1.50214,1.50207c0,0.8283 0.67384,1.50214 1.50214,1.50214c0.82823,0 1.50207,-0.67384 1.50207,-1.50214zM18.80946,17.99042c0,-0.82823 -0.67384,-1.50207 -1.50214,-1.50207c-0.82823,0 -1.50207,0.67392 -1.50207,1.50214c0,0.82823 0.67384,1.50207 1.50207,1.50207c0.8283,0 1.50214,-0.67392 1.50214,-1.50214zM22.69196,22.08565c0,-0.8283 -0.67384,-1.50214 -1.50207,-1.50214c-0.82823,0 -1.50207,0.67384 -1.50207,1.50214c0,0.82823 0.67384,1.50207 1.50207,1.50207c0.82823,0 1.50207,-0.67384 1.50207,-1.50207zM22.69196,14.12075c0,-0.82823 -0.67384,-1.50207 -1.50207,-1.50207c-0.82823,0 -1.50207,0.67384 -1.50207,1.50207c0,0.8283 0.67384,1.50214 1.50207,1.50214c0.82823,0 1.50207,-0.67384 1.50207,-1.50214zM40.94062,28.3756l-5.98883,9.71687c-0.26694,0.43313 -0.73177,0.69169 -1.24343,0.69169c-0.26913,0 -0.5325,-0.07453 -0.76149,-0.21573l-9.71694,-5.98883c-0.6839,-0.42162 -0.89744,-1.32102 -0.47597,-2.005l5.98883,-9.71694c0.26702,-0.43313 0.73184,-0.69169 1.24343,-0.69169c0.26913,0 0.5325,0.07453 0.76156,0.21573l9.71687,5.98883c0.33033,0.20356 0.56187,0.52471 0.65191,0.90422c0.09012,0.37951 0.02761,0.77045 -0.17595,1.10085zM29.7584,25.27412c0.23722,0.14615 0.50934,0.22345 0.78699,0.22345c0.52573,0 1.00425,-0.26694 1.27986,-0.71421c0.43459,-0.7051 0.21449,-1.63226 -0.49061,-2.06685c-0.23722,-0.14615 -0.50934,-0.22345 -0.78699,-0.22345c-0.52573,0 -1.00425,0.26694 -1.27979,0.71413c-0.21063,0.34155 -0.27547,0.74473 -0.18287,1.1351c0.09275,0.39036 0.33186,0.72127 0.67341,0.93183zM31.20328,30.71019c0.23729,0.14615 0.50941,0.22345 0.78706,0.22345c0.52573,0 1.00417,-0.26694 1.27979,-0.71413c0.21048,-0.34148 0.2754,-0.74466 0.18272,-1.13502c-0.0926,-0.39036 -0.33179,-0.72127 -0.67333,-0.93183c-0.23729,-0.14615 -0.50941,-0.22345 -0.78706,-0.22345c-0.52573,0 -1.00417,0.26694 -1.27986,0.71413c-0.21048,0.34148 -0.2754,0.74466 -0.18272,1.13502c0.09275,0.39043 0.33186,0.72135 0.67341,0.93183zM33.93611,33.67601c-0.23722,-0.14615 -0.50934,-0.22345 -0.78699,-0.22345c-0.52573,0 -1.00425,0.26694 -1.27986,0.71413c-0.21048,0.34155 -0.2754,0.74466 -0.18272,1.1351c0.09267,0.39036 0.33186,0.72127 0.67341,0.93183c0.23722,0.14615 0.50934,0.22345 0.78699,0.22345c0.52573,0 1.00425,-0.26694 1.27986,-0.71421c0.43451,-0.7051 0.21442,-1.63234 -0.49068,-2.06685z" fill="#ffffff" stroke-width="0"></path><path d="M2,24c0,-12.15026 9.84974,-22 22,-22c12.15026,0 22,9.84974 22,22c0,12.15026 -9.84974,22 -22,22c-12.15026,0 -22,-9.84974 -22,-22z" id="base 1 1 1" fill="none" stroke-width="1"></path><g id="Capa_1 1 1" fill="#000000" stroke-width="1" font-family="Roboto, sans-serif" font-weight="normal" font-size="14" text-anchor="start"><g></g><g></g><g></g><g></g><g></g><g></g><g></g><g></g><g></g><g></g><g></g><g></g><g></g><g></g><g></g><g></g></g><rect x="2" y="2" width="44" height="22" fill="none" stroke-width="1"></rect><path d="M2,24v-22h44v22z" fill="none" stroke-width="1"></path><path d="M2,24v-22h44v22z" fill="none" stroke-width="1"></path><path d="M2,24v-22h44v22z" fill="none" stroke-width="1"></path><path d="M2,24v-22h44v22z" fill="none" stroke-width="1"></path></g></svg>